<svg width="1024" height="1024" viewBox="0 0 1024 1024" xmlns="http://www.w3.org/2000/svg" role="img">
    <defs>
      <clipPath id="clipi0"><path d="M928.00 512.00L927.90 620.70L927.59 655.39L927.09 680.57L926.38 701.02L925.46 718.52L924.34 733.94L923.01 747.81L921.48 760.44L919.73 772.07L917.78 782.84L915.61 792.88L913.22 802.28L910.62 811.11L907.79 819.42L904.74 827.27L901.46 834.68L897.94 841.70L894.19 848.34L890.19 854.63L885.93 860.59L881.42 866.24L876.64 871.59L871.59 876.64L866.24 881.42L860.59 885.93L854.63 890.19L848.34 894.19L841.70 897.94L834.68 901.46L827.27 904.74L819.42 907.79L811.11 910.62L802.28 913.22L792.88 915.61L782.84 917.78L772.07 919.73L760.44 921.48L747.81 923.01L733.94 924.34L718.52 925.46L701.02 926.38L680.57 927.09L655.39 927.59L620.70 927.90L512.00 928.00L403.30 927.90L368.61 927.59L343.43 927.09L322.98 926.38L305.48 925.46L290.06 924.34L276.19 923.01L263.56 921.48L251.93 919.73L241.16 917.78L231.12 915.61L221.72 913.22L212.89 910.62L204.58 907.79L196.73 904.74L189.32 901.46L182.30 897.94L175.66 894.19L169.37 890.19L163.41 885.93L157.76 881.42L152.41 876.64L147.36 871.59L142.58 866.24L138.07 860.59L133.81 854.63L129.81 848.34L126.06 841.70L122.54 834.68L119.26 827.27L116.21 819.42L113.38 811.11L110.78 802.28L108.39 792.88L106.22 782.84L104.27 772.07L102.52 760.44L100.99 747.81L99.66 733.94L98.54 718.52L97.62 701.02L96.91 680.57L96.41 655.39L96.10 620.70L96.00 512.00L96.10 403.30L96.41 368.61L96.91 343.43L97.62 322.98L98.54 305.48L99.66 290.06L100.99 276.19L102.52 263.56L104.27 251.93L106.22 241.16L108.39 231.12L110.78 221.72L113.38 212.89L116.21 204.58L119.26 196.73L122.54 189.32L126.06 182.30L129.81 175.66L133.81 169.37L138.07 163.41L142.58 157.76L147.36 152.41L152.41 147.36L157.76 142.58L163.41 138.07L169.37 133.81L175.66 129.81L182.30 126.06L189.32 122.54L196.73 119.26L204.58 116.21L212.89 113.38L221.72 110.78L231.12 108.39L241.16 106.22L251.93 104.27L263.56 102.52L276.19 100.99L290.06 99.66L305.48 98.54L322.98 97.62L343.43 96.91L368.61 96.41L403.30 96.10L512.00 96.00L620.70 96.10L655.39 96.41L680.57 96.91L701.02 97.62L718.52 98.54L733.94 99.66L747.81 100.99L760.44 102.52L772.07 104.27L782.84 106.22L792.88 108.39L802.28 110.78L811.11 113.38L819.42 116.21L827.27 119.26L834.68 122.54L841.70 126.06L848.34 129.81L854.63 133.81L860.59 138.07L866.24 142.58L871.59 147.36L876.64 152.41L881.42 157.76L885.93 163.41L890.19 169.37L894.19 175.66L897.94 182.30L901.46 189.32L904.74 196.73L907.79 204.58L910.62 212.89L913.22 221.72L915.61 231.12L917.78 241.16L919.73 251.93L921.48 263.56L923.01 276.19L924.34 290.06L925.46 305.48L926.38 322.98L927.09 343.43L927.59 368.61L927.90 403.30L928.00 512.00Z"></path></clipPath>
      <linearGradient id="bgi0" x1="0" y1="0" x2="0" y2="1">
        <stop offset="0" stop-color="#1B2233"></stop><stop offset="1" stop-color="#10141F"></stop>
      </linearGradient>
      <linearGradient id="acci0" x1="0" y1="0" x2="0" y2="1">
        <stop offset="0" stop-color="#FFC56E"></stop><stop offset="0.5" stop-color="#FF9A3D"></stop><stop offset="1" stop-color="#FF5E2A"></stop>
      </linearGradient>
      <linearGradient id="slatei0" x1="0" y1="0" x2="0" y2="1">
        <stop offset="0" stop-color="#3C4862"></stop><stop offset="1" stop-color="#28303F"></stop>
      </linearGradient>
      <linearGradient id="gloss2i0" x1="0" y1="0" x2="0" y2="1">
        <stop offset="0" stop-color="#ffffff" stop-opacity=".55"></stop><stop offset="1" stop-color="#ffffff" stop-opacity="0"></stop>
      </linearGradient>
      <radialGradient id="vigi0" cx="50%" cy="40%" r="72%">
        <stop offset="55%" stop-color="#000" stop-opacity="0"></stop><stop offset="100%" stop-color="#000" stop-opacity=".42"></stop>
      </radialGradient>
      <radialGradient id="haloi0" cx="50%" cy="46%" r="42%">
        <stop offset="0" stop-color="#FF9646" stop-opacity=".30"></stop><stop offset="100%" stop-color="#FF9646" stop-opacity="0"></stop>
      </radialGradient>
      <radialGradient id="seamcasti0" cx="50%" cy="50%" r="50%">
        <stop offset="0" stop-color="#FF9646" stop-opacity=".55"></stop><stop offset="100%" stop-color="#FF9646" stop-opacity="0"></stop>
      </radialGradient>
      <linearGradient id="topglossi0" x1="0" y1="0" x2="0" y2="1">
        <stop offset="0" stop-color="#ffffff" stop-opacity=".14"></stop><stop offset="42%" stop-color="#ffffff" stop-opacity="0"></stop>
      </linearGradient>
      <filter id="softi0" x="-40%" y="-40%" width="180%" height="180%">
        <feGaussianBlur in="SourceAlpha" stdDeviation="9" result="b"></feGaussianBlur>
        <feOffset in="b" dy="6" result="o"></feOffset>
        <feFlood flood-color="#FF9646" flood-opacity=".55"></feFlood>
        <feComposite in2="o" operator="in" result="gl"></feComposite>
        <feMerge><feMergeNode in="gl"></feMergeNode><feMergeNode in="SourceGraphic"></feMergeNode></feMerge>
      </filter>
      <filter id="g1i0" x="-120%" y="-120%" width="340%" height="340%"><feGaussianBlur stdDeviation="17"></feGaussianBlur></filter>
      <filter id="g2i0" x="-120%" y="-120%" width="340%" height="340%"><feGaussianBlur stdDeviation="7"></feGaussianBlur></filter>
      <filter id="dropi0" x="-40%" y="-40%" width="180%" height="180%">
        <feGaussianBlur in="SourceAlpha" stdDeviation="8" result="b"></feGaussianBlur>
        <feOffset in="b" dy="7" result="o"></feOffset>
        <feFlood flood-color="#000" flood-opacity=".45"></feFlood>
        <feComposite in2="o" operator="in" result="s"></feComposite>
        <feMerge><feMergeNode in="s"></feMergeNode><feMergeNode in="SourceGraphic"></feMergeNode></feMerge>
      </filter>
    </defs>

    
    <path d="M928.00 512.00L927.90 620.70L927.59 655.39L927.09 680.57L926.38 701.02L925.46 718.52L924.34 733.94L923.01 747.81L921.48 760.44L919.73 772.07L917.78 782.84L915.61 792.88L913.22 802.28L910.62 811.11L907.79 819.42L904.74 827.27L901.46 834.68L897.94 841.70L894.19 848.34L890.19 854.63L885.93 860.59L881.42 866.24L876.64 871.59L871.59 876.64L866.24 881.42L860.59 885.93L854.63 890.19L848.34 894.19L841.70 897.94L834.68 901.46L827.27 904.74L819.42 907.79L811.11 910.62L802.28 913.22L792.88 915.61L782.84 917.78L772.07 919.73L760.44 921.48L747.81 923.01L733.94 924.34L718.52 925.46L701.02 926.38L680.57 927.09L655.39 927.59L620.70 927.90L512.00 928.00L403.30 927.90L368.61 927.59L343.43 927.09L322.98 926.38L305.48 925.46L290.06 924.34L276.19 923.01L263.56 921.48L251.93 919.73L241.16 917.78L231.12 915.61L221.72 913.22L212.89 910.62L204.58 907.79L196.73 904.74L189.32 901.46L182.30 897.94L175.66 894.19L169.37 890.19L163.41 885.93L157.76 881.42L152.41 876.64L147.36 871.59L142.58 866.24L138.07 860.59L133.81 854.63L129.81 848.34L126.06 841.70L122.54 834.68L119.26 827.27L116.21 819.42L113.38 811.11L110.78 802.28L108.39 792.88L106.22 782.84L104.27 772.07L102.52 760.44L100.99 747.81L99.66 733.94L98.54 718.52L97.62 701.02L96.91 680.57L96.41 655.39L96.10 620.70L96.00 512.00L96.10 403.30L96.41 368.61L96.91 343.43L97.62 322.98L98.54 305.48L99.66 290.06L100.99 276.19L102.52 263.56L104.27 251.93L106.22 241.16L108.39 231.12L110.78 221.72L113.38 212.89L116.21 204.58L119.26 196.73L122.54 189.32L126.06 182.30L129.81 175.66L133.81 169.37L138.07 163.41L142.58 157.76L147.36 152.41L152.41 147.36L157.76 142.58L163.41 138.07L169.37 133.81L175.66 129.81L182.30 126.06L189.32 122.54L196.73 119.26L204.58 116.21L212.89 113.38L221.72 110.78L231.12 108.39L241.16 106.22L251.93 104.27L263.56 102.52L276.19 100.99L290.06 99.66L305.48 98.54L322.98 97.62L343.43 96.91L368.61 96.41L403.30 96.10L512.00 96.00L620.70 96.10L655.39 96.41L680.57 96.91L701.02 97.62L718.52 98.54L733.94 99.66L747.81 100.99L760.44 102.52L772.07 104.27L782.84 106.22L792.88 108.39L802.28 110.78L811.11 113.38L819.42 116.21L827.27 119.26L834.68 122.54L841.70 126.06L848.34 129.81L854.63 133.81L860.59 138.07L866.24 142.58L871.59 147.36L876.64 152.41L881.42 157.76L885.93 163.41L890.19 169.37L894.19 175.66L897.94 182.30L901.46 189.32L904.74 196.73L907.79 204.58L910.62 212.89L913.22 221.72L915.61 231.12L917.78 241.16L919.73 251.93L921.48 263.56L923.01 276.19L924.34 290.06L925.46 305.48L926.38 322.98L927.09 343.43L927.59 368.61L927.90 403.30L928.00 512.00Z" fill="#000" opacity=".34" filter="url(#g1i0)" transform="translate(0,16)"></path>

    <g clip-path="url(#clipi0)">
      <rect x="96" y="96" width="832" height="832" fill="url(#bgi0)"></rect>
      <rect x="96" y="96" width="832" height="832" fill="url(#haloi0)"></rect>
      
        <g filter="url(#dropi0)">
          <path d="M258,437h198a16,16 0 0 1 16,16v118a16,16 0 0 1 -16,16h-198a46,46 0 0 1 -46,-46v-58a46,46 0 0 1 46,-46z" fill="url(#slatei0)"></path>
          <path d="M568,437h198a46,46 0 0 1 46,46v58a46,46 0 0 1 -46,46h-198a16,16 0 0 1 -16,-16v-118a16,16 0 0 1 16,-16z" fill="url(#slatei0)"></path>
        </g>
        <path d="M258,445h198a16,16 0 0 1 16,16v11a18,18 0 0 1 -18,18h-224a18,18 0 0 1 -18,-18v19a46,46 0 0 1 46,-46z" fill="url(#gloss2i0)" opacity=".36"></path>
        <path d="M568,445h198a46,46 0 0 1 46,46v-19a18,18 0 0 1 -18,18h-224a18,18 0 0 1 -18,-18v-11a16,16 0 0 1 16,-16z" fill="url(#gloss2i0)" opacity=".36"></path>
        <circle cx="512" cy="512" r="150" fill="url(#seamcasti0)"></circle>
        <rect x="468" y="410" width="88" height="204" rx="44" fill="#FF9646" filter="url(#g1i0)"></rect>
        <rect x="468" y="410" width="88" height="204" rx="44" fill="url(#acci0)"></rect>
        <rect x="489" y="426" width="46" height="172" rx="23" fill="#FBFEFF" opacity=".9" filter="url(#g2i0)"></rect>
        <circle cx="592" cy="394" r="19" fill="#FF9646" filter="url(#g2i0)"></circle><circle cx="592" cy="394" r="12" fill="#FBFEFF"></circle><circle cx="642" cy="448" r="14" fill="#FF9646" filter="url(#g2i0)"></circle><circle cx="642" cy="448" r="7" fill="#FBFEFF"></circle><circle cx="420" cy="362" r="15" fill="#FF9646" filter="url(#g2i0)"></circle><circle cx="420" cy="362" r="8" fill="#FBFEFF"></circle><circle cx="674" cy="372" r="13" fill="#FF9646" filter="url(#g2i0)"></circle><circle cx="674" cy="372" r="6" fill="#FBFEFF"></circle><circle cx="360" cy="420" r="13" fill="#FF9646" filter="url(#g2i0)"></circle><circle cx="360" cy="420" r="6" fill="#FBFEFF"></circle>
      
      <rect x="96" y="96" width="832" height="832" fill="url(#vigi0)"></rect>
      <rect x="96" y="96" width="832" height="832" fill="url(#topglossi0)"></rect>
    </g>
    
    <path d="M928.00 512.00L927.90 620.70L927.59 655.39L927.09 680.57L926.38 701.02L925.46 718.52L924.34 733.94L923.01 747.81L921.48 760.44L919.73 772.07L917.78 782.84L915.61 792.88L913.22 802.28L910.62 811.11L907.79 819.42L904.74 827.27L901.46 834.68L897.94 841.70L894.19 848.34L890.19 854.63L885.93 860.59L881.42 866.24L876.64 871.59L871.59 876.64L866.24 881.42L860.59 885.93L854.63 890.19L848.34 894.19L841.70 897.94L834.68 901.46L827.27 904.74L819.42 907.79L811.11 910.62L802.28 913.22L792.88 915.61L782.84 917.78L772.07 919.73L760.44 921.48L747.81 923.01L733.94 924.34L718.52 925.46L701.02 926.38L680.57 927.09L655.39 927.59L620.70 927.90L512.00 928.00L403.30 927.90L368.61 927.59L343.43 927.09L322.98 926.38L305.48 925.46L290.06 924.34L276.19 923.01L263.56 921.48L251.93 919.73L241.16 917.78L231.12 915.61L221.72 913.22L212.89 910.62L204.58 907.79L196.73 904.74L189.32 901.46L182.30 897.94L175.66 894.19L169.37 890.19L163.41 885.93L157.76 881.42L152.41 876.64L147.36 871.59L142.58 866.24L138.07 860.59L133.81 854.63L129.81 848.34L126.06 841.70L122.54 834.68L119.26 827.27L116.21 819.42L113.38 811.11L110.78 802.28L108.39 792.88L106.22 782.84L104.27 772.07L102.52 760.44L100.99 747.81L99.66 733.94L98.54 718.52L97.62 701.02L96.91 680.57L96.41 655.39L96.10 620.70L96.00 512.00L96.10 403.30L96.41 368.61L96.91 343.43L97.62 322.98L98.54 305.48L99.66 290.06L100.99 276.19L102.52 263.56L104.27 251.93L106.22 241.16L108.39 231.12L110.78 221.72L113.38 212.89L116.21 204.58L119.26 196.73L122.54 189.32L126.06 182.30L129.81 175.66L133.81 169.37L138.07 163.41L142.58 157.76L147.36 152.41L152.41 147.36L157.76 142.58L163.41 138.07L169.37 133.81L175.66 129.81L182.30 126.06L189.32 122.54L196.73 119.26L204.58 116.21L212.89 113.38L221.72 110.78L231.12 108.39L241.16 106.22L251.93 104.27L263.56 102.52L276.19 100.99L290.06 99.66L305.48 98.54L322.98 97.62L343.43 96.91L368.61 96.41L403.30 96.10L512.00 96.00L620.70 96.10L655.39 96.41L680.57 96.91L701.02 97.62L718.52 98.54L733.94 99.66L747.81 100.99L760.44 102.52L772.07 104.27L782.84 106.22L792.88 108.39L802.28 110.78L811.11 113.38L819.42 116.21L827.27 119.26L834.68 122.54L841.70 126.06L848.34 129.81L854.63 133.81L860.59 138.07L866.24 142.58L871.59 147.36L876.64 152.41L881.42 157.76L885.93 163.41L890.19 169.37L894.19 175.66L897.94 182.30L901.46 189.32L904.74 196.73L907.79 204.58L910.62 212.89L913.22 221.72L915.61 231.12L917.78 241.16L919.73 251.93L921.48 263.56L923.01 276.19L924.34 290.06L925.46 305.48L926.38 322.98L927.09 343.43L927.59 368.61L927.90 403.30L928.00 512.00Z" fill="none" stroke="rgba(0,0,0,.45)" stroke-width="4"></path>
    <path d="M928.00 512.00L927.90 620.70L927.59 655.39L927.09 680.57L926.38 701.02L925.46 718.52L924.34 733.94L923.01 747.81L921.48 760.44L919.73 772.07L917.78 782.84L915.61 792.88L913.22 802.28L910.62 811.11L907.79 819.42L904.74 827.27L901.46 834.68L897.94 841.70L894.19 848.34L890.19 854.63L885.93 860.59L881.42 866.24L876.64 871.59L871.59 876.64L866.24 881.42L860.59 885.93L854.63 890.19L848.34 894.19L841.70 897.94L834.68 901.46L827.27 904.74L819.42 907.79L811.11 910.62L802.28 913.22L792.88 915.61L782.84 917.78L772.07 919.73L760.44 921.48L747.81 923.01L733.94 924.34L718.52 925.46L701.02 926.38L680.57 927.09L655.39 927.59L620.70 927.90L512.00 928.00L403.30 927.90L368.61 927.59L343.43 927.09L322.98 926.38L305.48 925.46L290.06 924.34L276.19 923.01L263.56 921.48L251.93 919.73L241.16 917.78L231.12 915.61L221.72 913.22L212.89 910.62L204.58 907.79L196.73 904.74L189.32 901.46L182.30 897.94L175.66 894.19L169.37 890.19L163.41 885.93L157.76 881.42L152.41 876.64L147.36 871.59L142.58 866.24L138.07 860.59L133.81 854.63L129.81 848.34L126.06 841.70L122.54 834.68L119.26 827.27L116.21 819.42L113.38 811.11L110.78 802.28L108.39 792.88L106.22 782.84L104.27 772.07L102.52 760.44L100.99 747.81L99.66 733.94L98.54 718.52L97.62 701.02L96.91 680.57L96.41 655.39L96.10 620.70L96.00 512.00L96.10 403.30L96.41 368.61L96.91 343.43L97.62 322.98L98.54 305.48L99.66 290.06L100.99 276.19L102.52 263.56L104.27 251.93L106.22 241.16L108.39 231.12L110.78 221.72L113.38 212.89L116.21 204.58L119.26 196.73L122.54 189.32L126.06 182.30L129.81 175.66L133.81 169.37L138.07 163.41L142.58 157.76L147.36 152.41L152.41 147.36L157.76 142.58L163.41 138.07L169.37 133.81L175.66 129.81L182.30 126.06L189.32 122.54L196.73 119.26L204.58 116.21L212.89 113.38L221.72 110.78L231.12 108.39L241.16 106.22L251.93 104.27L263.56 102.52L276.19 100.99L290.06 99.66L305.48 98.54L322.98 97.62L343.43 96.91L368.61 96.41L403.30 96.10L512.00 96.00L620.70 96.10L655.39 96.41L680.57 96.91L701.02 97.62L718.52 98.54L733.94 99.66L747.81 100.99L760.44 102.52L772.07 104.27L782.84 106.22L792.88 108.39L802.28 110.78L811.11 113.38L819.42 116.21L827.27 119.26L834.68 122.54L841.70 126.06L848.34 129.81L854.63 133.81L860.59 138.07L866.24 142.58L871.59 147.36L876.64 152.41L881.42 157.76L885.93 163.41L890.19 169.37L894.19 175.66L897.94 182.30L901.46 189.32L904.74 196.73L907.79 204.58L910.62 212.89L913.22 221.72L915.61 231.12L917.78 241.16L919.73 251.93L921.48 263.56L923.01 276.19L924.34 290.06L925.46 305.48L926.38 322.98L927.09 343.43L927.59 368.61L927.90 403.30L928.00 512.00Z" fill="none" stroke="rgba(255,255,255,.10)" stroke-width="1.5" transform="translate(0,-1.2)"></path>
  </svg>